<svg width="85" height="53" viewBox="0 0 85 53" fill="none" xmlns="http://www.w3.org/2000/svg">
<g id="logo">
<path id="Vector_2" d="M50.3032 52.416C49.312 52.416 48.4126 52.2457 47.6003 51.9048C46.8064 51.5473 46.1135 51.0687 45.5307 50.468C44.9479 49.8508 44.4936 49.1528 44.1678 48.3736C43.8604 47.5779 43.7043 46.734 43.7043 45.8409C43.7043 44.6396 43.9797 43.5437 44.5304 42.5534C45.0856 41.5469 45.8565 40.7433 46.8477 40.1426C47.8344 39.5256 48.9954 39.2172 50.3262 39.2172C51.6615 39.2172 52.8042 39.5256 53.7633 40.1426C54.7361 40.7433 55.4887 41.5387 56.0256 42.5291C56.5625 43.5194 56.8286 44.5828 56.8286 45.7192C56.8286 45.914 56.8241 46.1007 56.8057 46.2792C56.7874 46.4417 56.7736 46.5798 56.7552 46.6931H46.554C46.5999 47.4402 46.8065 48.0974 47.1644 48.6659C47.5361 49.218 48.0087 49.6562 48.5732 49.9806C49.1422 50.2895 49.7525 50.4437 50.3996 50.4437C51.1154 50.4437 51.79 50.2647 52.4233 49.9077C53.0703 49.5507 53.5108 49.0798 53.7357 48.4952L56.0256 49.1528C55.7502 49.7696 55.328 50.3299 54.759 50.8333C54.2083 51.3202 53.5522 51.7097 52.7858 52.0021C52.0241 52.2779 51.198 52.416 50.3032 52.416ZM46.4807 44.9156H54.1763C54.1258 44.185 53.9147 43.5437 53.543 42.9918C53.1851 42.4235 52.7216 41.9852 52.1525 41.6767C51.6019 41.3521 50.987 41.1897 50.3032 41.1897C49.6378 41.1897 49.0229 41.3521 48.4539 41.6767C47.9032 41.9852 47.4443 42.4235 47.091 42.9918C46.733 43.5437 46.5311 44.185 46.4807 44.9156ZM64.7858 52.416C63.7946 52.416 62.8952 52.2457 62.083 51.9048C61.2891 51.5473 60.5961 51.0687 60.0134 50.468C59.4306 49.8508 58.9763 49.1528 58.6505 48.3736C58.343 47.5779 58.187 46.734 58.187 45.8409C58.187 44.6396 58.4623 43.5437 59.0129 42.5534C59.5682 41.5469 60.3392 40.7433 61.3304 40.1426C62.317 39.5256 63.478 39.2172 64.8087 39.2172C66.1441 39.2172 67.2868 39.5256 68.2458 40.1426C69.2187 40.7433 69.9713 41.5387 70.5082 42.5291C71.0451 43.5194 71.3113 44.5828 71.3113 45.7192C71.3113 45.914 71.3066 46.1007 71.2883 46.2792C71.2745 46.4417 71.2562 46.5798 71.2378 46.6931H61.0367C61.0872 47.4402 61.289 48.0974 61.647 48.6659C62.0187 49.218 62.4914 49.6562 63.0558 49.9806C63.6248 50.2895 64.2351 50.4437 64.8822 50.4437C65.5981 50.4437 66.2726 50.2647 66.9059 49.9077C67.5529 49.5507 67.9935 49.0798 68.2183 48.4952L70.5082 49.1528C70.2329 49.7696 69.8107 50.3299 69.2417 50.8333C68.691 51.3202 68.0347 51.7097 67.2684 52.0021C66.5066 52.2779 65.6807 52.416 64.7858 52.416ZM60.9632 44.9156H68.6588C68.6084 44.185 68.3973 43.5437 68.0256 42.9918C67.6676 42.4235 67.2041 41.9852 66.6351 41.6767C66.0845 41.3521 65.4696 41.1897 64.7858 41.1897C64.1204 41.1897 63.5055 41.3521 62.9365 41.6767C62.3858 41.9852 61.9269 42.4235 61.5736 42.9918C61.2157 43.5437 61.0137 44.185 60.9632 44.9156ZM80.4661 51.5152C80.2367 51.6285 79.9522 51.7506 79.6126 51.8805C79.273 52.0103 78.8829 52.1237 78.4424 52.2214C78.0202 52.3187 77.5843 52.3673 77.13 52.3673C76.5793 52.3673 76.0654 52.2701 75.5973 52.075C75.1246 51.8805 74.7437 51.5716 74.4501 51.1499C74.1747 50.7112 74.037 50.1514 74.037 49.4694V41.5063H72.3575V39.4364H74.037V35.2478H76.717V39.4364H79.4933V41.5063H76.717V48.6173C76.7491 49.0555 76.8868 49.38 77.13 49.591C77.3869 49.8021 77.7036 49.9077 78.0799 49.9077C78.4516 49.9077 78.8095 49.843 79.1491 49.7131C79.4933 49.5832 79.7411 49.4777 79.9063 49.3965L80.4661 51.5152ZM82.32 52.1723V39.4364H85V52.1723H82.32ZM82.32 37.3421V34.3955H85V37.3421H82.32Z" fill="#000000"/>
<path id="Vector_3" d="M37.6517 14.9906C37.6517 12.2904 35.4627 10.1014 32.7599 10.1014C30.1029 10.1014 27.9369 12.2157 27.8864 14.871C27.7442 22.3169 27.5468 35.8134 27.9828 35.3554C31.6126 31.5621 37.6517 30.8952 37.6517 25.6451V14.9906Z" fill="#000000"/>
<path id="Vector_4" d="M32.2116 8.83889C29.8762 8.83889 27.9829 6.86023 27.9829 4.41944C27.9829 1.97865 29.8762 0 32.2116 0C34.5471 0 36.4403 1.97865 36.4403 4.41944C36.4403 6.86023 34.5471 8.83889 32.2116 8.83889Z" fill="#000000"/>
<path id="Vector_5" d="M37.638 37.2682C37.638 25.9039 38.8586 30.3232 27.9737 37.2682V51.2588C27.9737 52.7314 37.638 52.4368 37.638 51.2588V37.2682Z" fill="#000000"/>
<path id="Vector_6" d="M33.2233 11.5103C31.6172 10.6393 29.4512 11.1315 28.382 12.6094L16.437 29.1076C15.3678 30.5855 15.7992 32.4897 17.4007 33.3606C19.0068 34.2315 21.1728 33.7394 22.242 32.2614L34.1869 15.7633C35.2562 14.2853 34.8248 12.3811 33.2233 11.5103Z" fill="#000000"/>
<path id="Vector_7" d="M0.0272827 14.9906C0.0272827 12.2904 2.21615 10.1014 4.91902 10.1014C7.576 10.1014 9.74197 12.2157 9.79244 14.871C9.9347 22.3169 10.132 35.8134 9.6961 35.3554C6.06627 31.5621 0.0272827 30.8952 0.0272827 25.6451V14.9906Z" fill="#000000"/>
<path id="Vector_8" d="M5.46493 8.83889C7.80037 8.83889 9.69359 6.86023 9.69359 4.41944C9.69359 1.97865 7.80037 0 5.46493 0C3.12949 0 1.23621 1.97865 1.23621 4.41944C1.23621 6.86023 3.12949 8.83889 5.46493 8.83889Z" fill="#000000"/>
<path id="Vector_9" d="M0.0409634 37.2682C0.0409634 25.9039 -1.17966 30.3232 9.70524 37.2682V51.2588C9.70524 52.7314 0.0409634 52.4368 0.0409634 51.2588V37.2682Z" fill="#000000"/>
<path id="Vector_10" d="M4.45997 11.5103C6.0615 10.6393 8.22749 11.1315 9.2967 12.6094L21.2417 29.1076C22.3155 30.5855 21.8795 32.4897 20.2779 33.3606C18.6764 34.2315 16.5059 33.7394 15.4367 32.2614L3.49172 15.7633C2.4225 14.2853 2.85385 12.3811 4.45997 11.5103Z" fill="#000000"/>
</g>
</svg>
