<svg width="22" height="21" viewBox="0 0 22 21" fill="none" xmlns="http://www.w3.org/2000/svg">
<path id="Vector" fill-rule="evenodd" clip-rule="evenodd" d="M21.3563 18.529L17.1731 14.6665H17.1597C18.3906 13.1552 19.0567 11.3118 19.0568 9.4165C19.0568 4.5915 14.832 0.666504 9.63839 0.666504C4.44749 0.666504 0.222656 4.5915 0.222656 9.4165C0.222656 14.2415 4.44749 18.1665 9.63973 18.1665C11.7656 18.1665 13.7166 17.504 15.2908 16.404V16.4165L19.447 20.304C19.7161 20.554 20.0525 20.6665 20.4023 20.6665C20.7521 20.6665 21.0885 20.5415 21.3576 20.304C21.8823 19.8165 21.8823 19.0165 21.3576 18.529H21.3563ZM9.64108 15.6665C5.92753 15.6665 2.91363 12.8665 2.91363 9.4165C2.91363 5.9665 5.92753 3.1665 9.64108 3.1665C13.3546 3.1665 16.3685 5.9665 16.3685 9.4165C16.3685 12.8665 13.3546 15.6665 9.64108 15.6665Z" fill="black" fill-opacity="0.3"/>
</svg>
